<?xml version="1.0" encoding="UTF-8"?>
<svg height="16px" viewBox="0 0 16 16" width="16px" xmlns="http://www.w3.org/2000/svg">
    <path d="m 2.503906 2.949219 c -1.386718 0 -2.503906 1.082031 -2.503906 2.433593 v 5.234376 c 0 1.347656 1.117188 2.433593 2.503906 2.433593 h 10.992188 c 1.386718 0 2.503906 -1.085937 2.503906 -2.433593 v -5.234376 c 0 -1.351562 -1.117188 -2.433593 -2.503906 -2.433593 z m 0.554688 2.484375 h 4.6875 c 0.589844 0 1.066406 0.550781 1.066406 1.238281 v 2.65625 c 0 0.683594 -0.476562 1.238281 -1.066406 1.238281 h -4.6875 c -0.589844 0 -1.066406 -0.554687 -1.066406 -1.238281 v -2.65625 c 0 -0.6875 0.476562 -1.238281 1.066406 -1.238281 z m 8.125 0.300781 c 0.191406 0 0.371094 0.074219 0.503906 0.210937 c 0.132812 0.132813 0.207031 0.3125 0.207031 0.503907 c 0 0.390625 -0.320312 0.707031 -0.714843 0.707031 c -0.390626 -0.003906 -0.707032 -0.324219 -0.707032 -0.714844 c 0.003906 -0.390625 0.320313 -0.707031 0.710938 -0.707031 z m 2.53125 0 c 0.191406 0 0.371094 0.074219 0.503906 0.210937 c 0.132812 0.132813 0.207031 0.3125 0.207031 0.503907 c 0 0.390625 -0.320312 0.707031 -0.714843 0.707031 c -0.390626 -0.003906 -0.707032 -0.324219 -0.707032 -0.714844 c 0.003906 -0.390625 0.320313 -0.707031 0.710938 -0.707031 z m -1.261719 1.554687 c 0.394531 0 0.710937 0.320313 0.707031 0.714844 c 0 0.390625 -0.316406 0.707032 -0.710937 0.707032 c -0.1875 -0.003907 -0.367188 -0.078126 -0.5 -0.210938 c -0.132813 -0.132812 -0.207031 -0.316406 -0.207031 -0.503906 c 0 -0.390625 0.320312 -0.707032 0.710937 -0.707032 z m -1.269531 1.554688 c 0.191406 0 0.371094 0.074219 0.503906 0.210938 c 0.132812 0.132812 0.207031 0.3125 0.207031 0.503906 c 0 0.390625 -0.320312 0.707031 -0.714843 0.707031 c -0.390626 -0.003906 -0.707032 -0.324219 -0.707032 -0.714844 c 0.003906 -0.390625 0.320313 -0.707031 0.710938 -0.707031 z m 2.53125 0 c 0.191406 0 0.371094 0.074219 0.503906 0.210938 c 0.132812 0.132812 0.207031 0.3125 0.207031 0.503906 c 0 0.390625 -0.320312 0.707031 -0.714843 0.707031 c -0.390626 -0.003906 -0.707032 -0.324219 -0.707032 -0.714844 c 0.003906 -0.390625 0.320313 -0.707031 0.710938 -0.707031 z m 0 0"/>
</svg>
