<?xml version="1.0" encoding="UTF-8"?>
<svg height="128px" viewBox="0 0 128 128" width="128px" xmlns="http://www.w3.org/2000/svg" xmlns:xlink="http://www.w3.org/1999/xlink">
    <linearGradient id="a" gradientUnits="userSpaceOnUse">
        <stop offset="0" stop-color="#f6f5f4"/>
        <stop offset="1" stop-color="#f6f5f4" stop-opacity="0"/>
    </linearGradient>
    <radialGradient id="b" cx="142.107315" cy="304.882538" gradientTransform="matrix(0 -0.943492 -0.0684287 0 137.77058 237.578223)" r="51.712517" xlink:href="#a"/>
    <radialGradient id="c" cx="142.107315" cy="304.882538" gradientTransform="matrix(0 -0.943492 0.0684287 0 -9.770844 237.578225)" r="51.712517" xlink:href="#a"/>
    <path d="m 16 37.039062 h 96 c 4.417969 0 8 3.554688 8 7.9375 v 55.550782 c 0 4.382812 -3.582031 7.933594 -8 7.933594 h -96 c -4.417969 0 -8 -3.550782 -8 -7.933594 v -55.550782 c 0 -4.382812 3.582031 -7.9375 8 -7.9375 z m 0 0" fill="#9a9996"/>
    <path d="m 16 37.039062 h 96 c 4.417969 0 8 3.554688 8 7.9375 v 55.550782 c 0 4.382812 -3.582031 7.933594 -8 7.933594 h -96 c -4.417969 0 -8 -3.550782 -8 -7.933594 v -55.550782 c 0 -4.382812 3.582031 -7.9375 8 -7.9375 z m 0 0" fill="#62a0ea"/>
    <path d="m 112 37.039062 h -96 c -4.417969 0 -8 3.554688 -8 7.9375 v 55.550782 c 0 4.382812 3.582031 7.933594 8 7.933594 h 96 c 4.417969 0 8 -3.550782 8 -7.933594 v -55.550782 c 0 -4.382812 -3.582031 -7.9375 -8 -7.9375 z m 0 0" fill="url(#b)"/>
    <path d="m 16 37.039062 h 96 c 4.417969 0 8 3.554688 8 7.9375 v 55.550782 c 0 4.382812 -3.582031 7.933594 -8 7.933594 h -96 c -4.417969 0 -8 -3.550782 -8 -7.933594 v -55.550782 c 0 -4.382812 3.582031 -7.9375 8 -7.9375 z m 0 0" fill="url(#c)"/>
    <path d="m 16 28.289062 h 96 c 4.417969 0 8 3.554688 8 7.9375 v 55.550782 c 0 4.382812 -3.582031 7.933594 -8 7.933594 h -96 c -4.417969 0 -8 -3.550782 -8 -7.933594 v -55.550782 c 0 -4.382812 3.582031 -7.9375 8 -7.9375 z m 0 0" fill="#deddda"/>
    <path d="m 8 85.65625 v 6.121094 c 0 4.398437 3.566406 7.9375 8 7.9375 h 96 c 4.433594 0 8 -3.539063 8 -7.9375 v -6.121094 h -13.050781 c -3.328125 1.722656 -7.019531 2.632812 -10.765625 2.660156 c -3.746094 -0.027344 -7.4375 -0.9375 -10.765625 -2.660156 h -23.578125 c 0 5.933594 -0.371094 7.027344 -5.289063 7.027344 h -25.324219 c -4.917968 0 -5.292968 -1.09375 -5.292968 -7.027344 z m 0 0" fill="#99c1f1"/>
    <g fill="#3d3846">
        <path d="m 96.179688 65.207031 c -0.390626 0 -0.707032 -0.320312 -0.707032 -0.710937 c 0.003906 -0.390625 0.320313 -0.707032 0.710938 -0.707032 c 0.394531 0 0.710937 0.320313 0.710937 0.710938 c -0.003906 0.390625 -0.320312 0.710938 -0.714843 0.707031 z m 0 0"/>
        <path d="m 115.289062 65.214844 c -0.390624 -0.003906 -0.710937 -0.320313 -0.707031 -0.714844 c 0 -0.390625 0.320313 -0.707031 0.710938 -0.707031 c 0.390625 0.003906 0.707031 0.320312 0.707031 0.710937 c 0 0.394532 -0.320312 0.710938 -0.710938 0.710938 z m 0 0"/>
        <path d="m 115.007812 61.902344 c -0.390624 0 -0.707031 -0.320313 -0.707031 -0.710938 s 0.320313 -0.710937 0.710938 -0.707031 c 0.394531 0 0.710937 0.320313 0.707031 0.710937 c 0 0.390626 -0.316406 0.707032 -0.710938 0.707032 z m 0 0"/>
        <path d="m 114.15625 58.691406 c -0.390625 0 -0.707031 -0.320312 -0.707031 -0.710937 c 0.003906 -0.394531 0.320312 -0.710938 0.710937 -0.707031 c 0.394532 0 0.710938 0.320312 0.710938 0.710937 c -0.003906 0.390625 -0.320313 0.707031 -0.714844 0.707031 z m 0 0"/>
        <path d="m 112.761719 55.675781 c -0.390625 0 -0.707031 -0.320312 -0.707031 -0.710937 s 0.320312 -0.707032 0.710937 -0.707032 s 0.710937 0.320313 0.707031 0.710938 c 0 0.390625 -0.320312 0.707031 -0.710937 0.707031 z m 0 0"/>
        <path d="m 110.863281 52.949219 c -0.390625 0 -0.707031 -0.320313 -0.707031 -0.710938 s 0.320312 -0.707031 0.710938 -0.707031 c 0.394531 0 0.710937 0.320312 0.707031 0.710938 c 0 0.390624 -0.316407 0.707031 -0.710938 0.707031 z m 0 0"/>
        <path d="m 108.523438 50.59375 c -0.394532 0 -0.710938 -0.320312 -0.710938 -0.710938 c 0.003906 -0.390624 0.320312 -0.710937 0.714844 -0.707031 c 0.390625 0 0.707031 0.320313 0.707031 0.710938 s -0.320313 0.707031 -0.710937 0.707031 z m 0 0"/>
        <path d="m 105.804688 48.679688 c -0.390626 0 -0.707032 -0.320313 -0.707032 -0.710938 s 0.320313 -0.707031 0.710938 -0.707031 c 0.394531 0 0.710937 0.320312 0.710937 0.710937 c -0.003906 0.394532 -0.320312 0.710938 -0.714843 0.707032 z m 0 0"/>
        <path d="m 102.800781 47.269531 c -0.394531 0 -0.710937 -0.320312 -0.710937 -0.710937 c 0.003906 -0.394532 0.320312 -0.710938 0.714844 -0.710938 c 0.390624 0.003906 0.707031 0.320313 0.707031 0.714844 c -0.003907 0.390625 -0.320313 0.707031 -0.710938 0.707031 z m 0 0"/>
        <path d="m 99.59375 46.398438 c -0.394531 0 -0.710938 -0.320313 -0.707031 -0.710938 c 0 -0.390625 0.316406 -0.707031 0.710937 -0.707031 c 0.390625 0 0.707032 0.320312 0.707032 0.710937 c 0 0.394532 -0.320313 0.710938 -0.710938 0.707032 z m 0 0"/>
        <path d="m 96.285156 46.101562 c -0.394531 0 -0.710937 -0.320312 -0.710937 -0.710937 c 0.003906 -0.394531 0.320312 -0.710937 0.714843 -0.710937 c 0.390626 0.003906 0.707032 0.320312 0.707032 0.714843 c 0 0.390625 -0.320313 0.707031 -0.710938 0.707031 z m 0 0"/>
        <path d="m 92.972656 46.382812 c -0.390625 -0.003906 -0.707031 -0.320312 -0.707031 -0.714843 c 0 -0.390625 0.320313 -0.707031 0.710937 -0.707031 c 0.394532 0.003906 0.710938 0.320312 0.707032 0.710937 c 0 0.394531 -0.316406 0.710937 -0.710938 0.710937 z m 0 0"/>
        <path d="m 89.761719 47.230469 c -0.390625 0 -0.707031 -0.316407 -0.707031 -0.710938 c 0 -0.390625 0.320312 -0.707031 0.710937 -0.707031 s 0.710937 0.320312 0.707031 0.710938 c 0 0.394531 -0.320312 0.710937 -0.710937 0.707031 z m 0 0"/>
        <path d="m 86.746094 48.628906 c -0.390625 -0.003906 -0.707032 -0.320312 -0.707032 -0.714844 c 0 -0.390624 0.320313 -0.707031 0.710938 -0.707031 c 0.394531 0.003907 0.710938 0.320313 0.710938 0.710938 c -0.003907 0.394531 -0.320313 0.710937 -0.714844 0.710937 z m 0 0"/>
        <path d="m 84.019531 50.523438 c -0.390625 0 -0.707031 -0.316407 -0.707031 -0.710938 c 0 -0.390625 0.320312 -0.707031 0.710938 -0.707031 c 0.394531 0 0.710937 0.320312 0.707031 0.710937 c 0 0.394532 -0.316407 0.710938 -0.710938 0.707032 z m 0 0"/>
        <path d="m 81.664062 52.867188 c -0.390624 0 -0.707031 -0.320313 -0.707031 -0.710938 s 0.320313 -0.707031 0.710938 -0.707031 c 0.394531 0 0.710937 0.320312 0.707031 0.710937 c 0 0.390625 -0.316406 0.707032 -0.710938 0.707032 z m 0 0"/>
        <path d="m 79.75 55.582031 c -0.390625 0 -0.707031 -0.316406 -0.707031 -0.710937 c 0.003906 -0.390625 0.320312 -0.707032 0.710937 -0.707032 c 0.394532 0 0.710938 0.320313 0.710938 0.710938 c -0.003906 0.394531 -0.320313 0.710938 -0.714844 0.707031 z m 0 0"/>
        <path d="m 78.339844 58.589844 c -0.390625 0 -0.710938 -0.320313 -0.707032 -0.710938 c 0 -0.390625 0.320313 -0.707031 0.710938 -0.707031 s 0.707031 0.320313 0.707031 0.710937 c 0 0.390626 -0.320312 0.707032 -0.710937 0.707032 z m 0 0"/>
        <path d="m 77.46875 61.796875 c -0.390625 0 -0.707031 -0.320313 -0.707031 -0.710937 c 0.003906 -0.390626 0.320312 -0.710938 0.710937 -0.707032 c 0.394532 0 0.710938 0.320313 0.710938 0.710938 c -0.003906 0.390625 -0.320313 0.707031 -0.714844 0.707031 z m 0 0"/>
        <path d="m 77.171875 65.105469 c -0.390625 0 -0.707031 -0.320313 -0.707031 -0.710938 s 0.320312 -0.707031 0.710937 -0.707031 s 0.707031 0.320312 0.707031 0.710938 c 0 0.390624 -0.320312 0.707031 -0.710937 0.707031 z m 0 0"/>
        <path d="m 77.453125 68.414062 c -0.394531 0 -0.710937 -0.316406 -0.707031 -0.710937 c 0 -0.390625 0.316406 -0.707031 0.710937 -0.707031 c 0.390625 0 0.707031 0.320312 0.707031 0.710937 c 0 0.394531 -0.320312 0.710938 -0.710937 0.707031 z m 0 0"/>
        <path d="m 78.300781 71.628906 c -0.390625 -0.003906 -0.707031 -0.320312 -0.707031 -0.714844 c 0.003906 -0.390624 0.320312 -0.707031 0.714844 -0.707031 c 0.390625 0.003907 0.707031 0.320313 0.707031 0.710938 c -0.003906 0.394531 -0.320313 0.710937 -0.714844 0.710937 z m 0 0"/>
        <path d="m 79.699219 74.640625 c -0.394531 0 -0.710938 -0.316406 -0.707031 -0.710937 c 0 -0.390626 0.316406 -0.707032 0.710937 -0.707032 c 0.390625 0 0.707031 0.320313 0.707031 0.710938 c 0 0.394531 -0.320312 0.710937 -0.710937 0.707031 z m 0 0"/>
        <path d="m 81.597656 77.367188 c -0.394531 0 -0.710937 -0.316407 -0.710937 -0.710938 c 0.003906 -0.390625 0.320312 -0.707031 0.714843 -0.707031 c 0.390626 0 0.707032 0.320312 0.707032 0.710937 c -0.003906 0.394532 -0.320313 0.710938 -0.710938 0.707032 z m 0 0"/>
        <path d="m 83.9375 79.722656 c -0.390625 0 -0.707031 -0.316406 -0.707031 -0.710937 c 0 -0.390625 0.320312 -0.707031 0.710937 -0.707031 c 0.394532 0 0.710938 0.320312 0.707032 0.710937 c 0 0.394531 -0.316407 0.710937 -0.710938 0.707031 z m 0 0"/>
        <path d="m 86.65625 81.636719 c -0.394531 0 -0.710938 -0.320313 -0.710938 -0.710938 c 0.003907 -0.390625 0.320313 -0.707031 0.714844 -0.707031 c 0.390625 0 0.707032 0.320312 0.707032 0.710938 c -0.003907 0.390624 -0.320313 0.710937 -0.710938 0.707031 z m 0 0"/>
        <path d="m 86.65625 81.636719 c -0.394531 0 -0.710938 -0.320313 -0.710938 -0.710938 c 0.003907 -0.390625 0.320313 -0.707031 0.714844 -0.707031 c 0.390625 0 0.707032 0.320312 0.707032 0.710938 c -0.003907 0.390624 -0.320313 0.710937 -0.710938 0.707031 z m 0 0"/>
        <path d="m 89.660156 83.050781 c -0.390625 0 -0.707031 -0.320312 -0.707031 -0.710937 c 0 -0.394532 0.320313 -0.710938 0.710937 -0.707032 c 0.394532 0 0.710938 0.316407 0.707032 0.710938 c 0 0.390625 -0.316406 0.707031 -0.710938 0.707031 z m 0 0"/>
        <path d="m 92.867188 83.917969 c -0.390626 0 -0.707032 -0.320313 -0.707032 -0.710938 s 0.320313 -0.707031 0.710938 -0.707031 c 0.394531 0 0.710937 0.320312 0.707031 0.710938 c 0 0.390624 -0.316406 0.710937 -0.710937 0.707031 z m 0 0"/>
        <path d="m 96.175781 84.21875 c -0.390625 0 -0.707031 -0.320312 -0.707031 -0.710938 c 0 -0.394531 0.320312 -0.710937 0.710938 -0.710937 c 0.394531 0.003906 0.710937 0.320313 0.707031 0.714844 c 0 0.390625 -0.316407 0.707031 -0.710938 0.707031 z m 0 0"/>
        <path d="m 99.488281 83.9375 c -0.394531 0 -0.710937 -0.320312 -0.710937 -0.710938 c 0.003906 -0.390624 0.320312 -0.710937 0.714844 -0.707031 c 0.390624 0 0.707031 0.320313 0.707031 0.710938 s -0.320313 0.707031 -0.710938 0.707031 z m 0 0"/>
        <path d="m 102.699219 83.085938 c -0.394531 0 -0.710938 -0.320313 -0.707031 -0.710938 c 0 -0.390625 0.316406 -0.707031 0.710937 -0.707031 c 0.390625 0 0.707031 0.320312 0.707031 0.710937 s -0.320312 0.710938 -0.710937 0.707032 z m 0 0"/>
        <path d="m 105.714844 81.691406 c -0.394532 0 -0.710938 -0.320312 -0.710938 -0.710937 c 0.003906 -0.394531 0.320313 -0.710938 0.714844 -0.707031 c 0.390625 0 0.707031 0.316406 0.707031 0.710937 c -0.003906 0.390625 -0.320312 0.707031 -0.710937 0.707031 z m 0 0"/>
        <path d="m 108.441406 79.792969 c -0.394531 0 -0.710937 -0.320313 -0.710937 -0.710938 c 0.003906 -0.390625 0.320312 -0.707031 0.714843 -0.707031 c 0.390626 0 0.707032 0.320312 0.707032 0.710938 c -0.003906 0.390624 -0.320313 0.707031 -0.710938 0.707031 z m 0 0"/>
        <path d="m 110.796875 77.449219 c -0.394531 0 -0.710937 -0.316407 -0.710937 -0.710938 c 0.003906 -0.390625 0.320312 -0.707031 0.714843 -0.707031 c 0.390625 0 0.707031 0.320312 0.707031 0.710938 c 0 0.394531 -0.320312 0.710937 -0.710937 0.707031 z m 0 0"/>
        <path d="m 112.707031 74.734375 c -0.390625 0 -0.707031 -0.320313 -0.707031 -0.710937 c 0.003906 -0.390626 0.320312 -0.707032 0.710938 -0.707032 c 0.394531 0 0.710937 0.320313 0.710937 0.710938 c -0.003906 0.390625 -0.320313 0.707031 -0.714844 0.707031 z m 0 0"/>
        <path d="m 114.121094 71.726562 c -0.390625 0 -0.707032 -0.316406 -0.707032 -0.710937 c 0 -0.390625 0.320313 -0.707031 0.710938 -0.707031 s 0.707031 0.320312 0.707031 0.710937 c 0 0.394531 -0.320312 0.710938 -0.710937 0.707031 z m 0 0"/>
        <path d="m 114.988281 68.523438 c -0.390625 -0.003907 -0.707031 -0.320313 -0.707031 -0.714844 c 0.003906 -0.390625 0.320312 -0.707032 0.710938 -0.707032 c 0.394531 0 0.710937 0.320313 0.710937 0.710938 c -0.003906 0.394531 -0.320313 0.710938 -0.714844 0.710938 z m 0 0"/>
        <path d="m 112.113281 65.203125 c -0.394531 0 -0.710937 -0.320313 -0.707031 -0.710937 c 0 -0.390626 0.316406 -0.707032 0.710938 -0.707032 c 0.390624 0 0.707031 0.320313 0.707031 0.710938 s -0.320313 0.710937 -0.710938 0.707031 z m 0 0"/>
        <path d="m 112.113281 65.203125 c -0.394531 0 -0.710937 -0.320313 -0.707031 -0.710937 c 0 -0.390626 0.316406 -0.707032 0.710938 -0.707032 c 0.390624 0 0.707031 0.320313 0.707031 0.710938 s -0.320313 0.710937 -0.710938 0.707031 z m 0 0"/>
        <path d="m 111.816406 62.105469 c -0.390625 0 -0.710937 -0.320313 -0.707031 -0.710938 c 0 -0.394531 0.320313 -0.710937 0.710937 -0.707031 c 0.390626 0 0.707032 0.316406 0.707032 0.710938 c 0 0.390624 -0.320313 0.707031 -0.710938 0.707031 z m 0 0"/>
        <path d="m 110.921875 59.121094 c -0.394531 0 -0.710937 -0.316406 -0.710937 -0.710938 c 0.003906 -0.390625 0.320312 -0.707031 0.714843 -0.707031 c 0.390625 0 0.707031 0.320313 0.707031 0.710937 c 0 0.394532 -0.320312 0.710938 -0.710937 0.707032 z m 0 0"/>
        <path d="m 109.460938 56.371094 c -0.390626 0 -0.710938 -0.316406 -0.707032 -0.710938 c 0 -0.390625 0.320313 -0.707031 0.710938 -0.707031 s 0.707031 0.320313 0.707031 0.710937 c 0 0.394532 -0.320313 0.710938 -0.710937 0.707032 z m 0 0"/>
        <path d="m 107.492188 53.960938 c -0.390626 0 -0.707032 -0.320313 -0.707032 -0.710938 c 0 -0.394531 0.320313 -0.710938 0.710938 -0.707031 c 0.390625 0 0.707031 0.316406 0.707031 0.710937 c 0 0.390625 -0.320313 0.707032 -0.710937 0.707032 z m 0 0"/>
        <path d="m 105.089844 51.980469 c -0.390625 -0.003907 -0.707032 -0.320313 -0.707032 -0.714844 c 0 -0.390625 0.320313 -0.707031 0.710938 -0.707031 c 0.394531 0 0.710938 0.320312 0.707031 0.710937 c 0 0.394531 -0.316406 0.710938 -0.710937 0.710938 z m 0 0"/>
        <path d="m 102.347656 50.503906 c -0.390625 0 -0.707031 -0.320312 -0.707031 -0.710937 c 0.003906 -0.394531 0.320313 -0.710938 0.710937 -0.707031 c 0.394532 0 0.710938 0.316406 0.710938 0.710937 c -0.003906 0.390625 -0.320312 0.707031 -0.714844 0.707031 z m 0 0"/>
        <path d="m 99.371094 49.589844 c -0.390625 0 -0.707032 -0.316406 -0.707032 -0.710938 c 0 -0.390625 0.320313 -0.707031 0.710938 -0.707031 c 0.394531 0 0.710938 0.320313 0.710938 0.710937 c -0.003907 0.394532 -0.320313 0.710938 -0.714844 0.707032 z m 0 0"/>
        <path d="m 96.273438 49.277344 c -0.390626 0 -0.707032 -0.320313 -0.707032 -0.710938 c 0 -0.394531 0.320313 -0.710937 0.710938 -0.707031 c 0.394531 0 0.710937 0.320313 0.710937 0.710937 c -0.003906 0.390626 -0.320312 0.707032 -0.714843 0.707032 z m 0 0"/>
        <path d="m 93.175781 49.574219 c -0.390625 0 -0.707031 -0.320313 -0.707031 -0.710938 c 0 -0.394531 0.320312 -0.710937 0.710938 -0.707031 c 0.390624 0 0.707031 0.316406 0.707031 0.710938 c 0 0.390624 -0.320313 0.707031 -0.710938 0.707031 z m 0 0"/>
        <path d="m 90.195312 50.46875 c -0.394531 0 -0.710937 -0.320312 -0.710937 -0.710938 c 0.003906 -0.390624 0.320313 -0.710937 0.714844 -0.707031 c 0.390625 0 0.707031 0.320313 0.707031 0.710938 c -0.003906 0.390625 -0.320312 0.707031 -0.710938 0.707031 z m 0 0"/>
        <path d="m 87.445312 51.929688 c -0.394531 0 -0.710937 -0.320313 -0.710937 -0.710938 c 0.003906 -0.394531 0.320313 -0.710938 0.714844 -0.710938 c 0.390625 0.003907 0.707031 0.320313 0.707031 0.714844 c 0 0.390625 -0.320312 0.707032 -0.710938 0.707032 z m 0 0"/>
        <path d="m 85.03125 53.898438 c -0.390625 -0.003907 -0.707031 -0.320313 -0.707031 -0.710938 c 0 -0.394531 0.320312 -0.710938 0.710937 -0.710938 c 0.390625 0.003907 0.710938 0.320313 0.707032 0.714844 c 0 0.390625 -0.320313 0.707032 -0.710938 0.707032 z m 0 0"/>
        <path d="m 83.050781 56.296875 c -0.394531 0 -0.710937 -0.316406 -0.707031 -0.710937 c 0 -0.390626 0.316406 -0.707032 0.710938 -0.707032 c 0.390624 0 0.707031 0.320313 0.707031 0.710938 c 0 0.394531 -0.320313 0.710937 -0.710938 0.707031 z m 0 0"/>
        <path d="m 81.574219 59.039062 c -0.390625 0 -0.707031 -0.320312 -0.707031 -0.710937 s 0.320312 -0.707031 0.710937 -0.707031 s 0.707031 0.320312 0.707031 0.710937 s -0.320312 0.710938 -0.710937 0.707031 z m 0 0"/>
        <path d="m 80.660156 62.015625 c -0.390625 0 -0.707031 -0.316406 -0.707031 -0.710937 c 0.003906 -0.390626 0.320313 -0.707032 0.710937 -0.707032 c 0.394532 0 0.710938 0.320313 0.710938 0.710938 c -0.003906 0.394531 -0.320312 0.710937 -0.714844 0.707031 z m 0 0"/>
        <path d="m 80.347656 65.113281 c -0.390625 0 -0.707031 -0.316406 -0.707031 -0.710937 c 0 -0.390625 0.320313 -0.707032 0.710937 -0.707032 c 0.390626 0 0.710938 0.320313 0.707032 0.710938 c 0 0.394531 -0.320313 0.710938 -0.710938 0.707031 z m 0 0"/>
        <path d="m 80.644531 68.214844 c -0.390625 0 -0.707031 -0.320313 -0.707031 -0.710938 c 0 -0.394531 0.320312 -0.710937 0.710938 -0.710937 c 0.390624 0.003906 0.707031 0.320312 0.707031 0.714843 c 0 0.390626 -0.320313 0.707032 -0.710938 0.707032 z m 0 0"/>
        <path d="m 81.539062 71.195312 c -0.390624 0 -0.707031 -0.320312 -0.707031 -0.710937 s 0.320313 -0.707031 0.710938 -0.707031 c 0.394531 0 0.710937 0.320312 0.707031 0.710937 c 0 0.390625 -0.316406 0.707031 -0.710938 0.707031 z m 0 0"/>
        <path d="m 83 73.945312 c -0.390625 0 -0.707031 -0.320312 -0.707031 -0.710937 s 0.320312 -0.707031 0.710937 -0.707031 s 0.707032 0.320312 0.707032 0.710937 s -0.320313 0.707031 -0.710938 0.707031 z m 0 0"/>
        <path d="m 84.96875 76.359375 c -0.390625 -0.003906 -0.710938 -0.320313 -0.707031 -0.710937 c 0 -0.394532 0.320312 -0.710938 0.710937 -0.710938 c 0.390625 0.003906 0.707032 0.320312 0.707032 0.714844 c 0 0.390625 -0.320313 0.707031 -0.710938 0.707031 z m 0 0"/>
        <path d="m 87.371094 78.339844 c -0.394532 0 -0.710938 -0.320313 -0.710938 -0.710938 c 0.003906 -0.390625 0.320313 -0.710937 0.714844 -0.707031 c 0.390625 0 0.707031 0.320313 0.707031 0.710937 c -0.003906 0.390626 -0.320312 0.707032 -0.710937 0.707032 z m 0 0"/>
        <path d="m 90.109375 79.816406 c -0.390625 0 -0.707031 -0.320312 -0.707031 -0.710937 c 0.003906 -0.394531 0.320312 -0.710938 0.710937 -0.710938 c 0.394531 0.003907 0.710938 0.320313 0.710938 0.714844 c -0.003907 0.390625 -0.320313 0.707031 -0.714844 0.707031 z m 0 0"/>
        <path d="m 93.089844 80.726562 c -0.394532 0 -0.710938 -0.320312 -0.710938 -0.710937 c 0.003906 -0.390625 0.320313 -0.707031 0.714844 -0.707031 c 0.390625 0 0.707031 0.320312 0.707031 0.710937 c -0.003906 0.390625 -0.320312 0.710938 -0.710937 0.707031 z m 0 0"/>
        <path d="m 96.1875 81.042969 c -0.394531 -0.003907 -0.710938 -0.320313 -0.710938 -0.714844 c 0.003907 -0.390625 0.320313 -0.707031 0.714844 -0.707031 c 0.390625 0.003906 0.707032 0.320312 0.707032 0.710937 c -0.003907 0.394531 -0.320313 0.710938 -0.710938 0.710938 z m 0 0"/>
        <path d="m 99.285156 80.746094 c -0.390625 -0.003906 -0.710937 -0.320313 -0.707031 -0.710938 c 0 -0.394531 0.320313 -0.710937 0.710937 -0.710937 c 0.390626 0.003906 0.707032 0.320312 0.707032 0.714843 c 0 0.390626 -0.320313 0.707032 -0.710938 0.707032 z m 0 0"/>
        <path d="m 102.265625 79.847656 c -0.390625 0 -0.707031 -0.316406 -0.707031 -0.710937 c 0 -0.390625 0.320312 -0.707031 0.710937 -0.707031 c 0.394531 0 0.710938 0.320312 0.707031 0.710937 c 0 0.394531 -0.316406 0.710937 -0.710937 0.707031 z m 0 0"/>
        <path d="m 105.015625 78.390625 c -0.390625 -0.003906 -0.707031 -0.320313 -0.707031 -0.710937 c 0 -0.394532 0.320312 -0.710938 0.710937 -0.710938 c 0.394531 0.003906 0.710938 0.320312 0.707031 0.714844 c 0 0.390625 -0.316406 0.707031 -0.710937 0.707031 z m 0 0"/>
        <path d="m 107.429688 76.421875 c -0.394532 0 -0.710938 -0.320313 -0.707032 -0.710937 c 0 -0.394532 0.320313 -0.710938 0.710938 -0.707032 c 0.390625 0 0.707031 0.316406 0.707031 0.710938 c 0 0.390625 -0.320313 0.707031 -0.710937 0.707031 z m 0 0"/>
        <path d="m 109.410156 74.019531 c -0.390625 0 -0.707031 -0.320312 -0.707031 -0.710937 s 0.320313 -0.707032 0.710937 -0.707032 c 0.394532 0 0.710938 0.320313 0.707032 0.710938 c 0 0.390625 -0.316406 0.707031 -0.710938 0.707031 z m 0 0"/>
        <path d="m 110.886719 71.277344 c -0.390625 0 -0.710938 -0.320313 -0.707031 -0.710938 c 0 -0.390625 0.320312 -0.707031 0.710937 -0.707031 s 0.707031 0.320313 0.707031 0.710937 c 0 0.394532 -0.320312 0.710938 -0.710937 0.707032 z m 0 0"/>
        <path d="m 111.796875 68.300781 c -0.390625 0 -0.707031 -0.320312 -0.707031 -0.710937 c 0.003906 -0.390625 0.320312 -0.707032 0.710937 -0.707032 c 0.394531 0 0.710938 0.320313 0.710938 0.710938 c -0.003907 0.390625 -0.320313 0.710938 -0.714844 0.707031 z m 0 0"/>
        <path d="m 108.9375 65.195312 c -0.394531 0 -0.710938 -0.320312 -0.710938 -0.710937 c 0.003907 -0.390625 0.320313 -0.710937 0.714844 -0.707031 c 0.390625 0 0.707032 0.320312 0.707032 0.710937 c -0.003907 0.390625 -0.320313 0.707031 -0.710938 0.707031 z m 0 0"/>
        <path d="m 108.511719 61.90625 c -0.390625 -0.003906 -0.707031 -0.320312 -0.707031 -0.710938 c 0 -0.394531 0.320312 -0.710937 0.710937 -0.710937 c 0.390625 0.003906 0.710937 0.320313 0.707031 0.714844 c 0 0.390625 -0.320312 0.707031 -0.710937 0.707031 z m 0 0"/>
        <path d="m 107.25 58.835938 c -0.390625 0 -0.707031 -0.316407 -0.707031 -0.710938 c 0.003906 -0.390625 0.320312 -0.707031 0.710937 -0.707031 c 0.394532 0 0.710938 0.320312 0.710938 0.710937 c -0.003906 0.394532 -0.320313 0.710938 -0.714844 0.707032 z m 0 0"/>
        <path d="m 105.238281 56.199219 c -0.390625 0 -0.707031 -0.316407 -0.707031 -0.710938 c 0.003906 -0.390625 0.320312 -0.707031 0.710938 -0.707031 c 0.394531 0 0.710937 0.320312 0.710937 0.710938 c -0.003906 0.394531 -0.320313 0.710937 -0.714844 0.707031 z m 0 0"/>
        <path d="m 102.613281 54.171875 c -0.390625 0 -0.707031 -0.316406 -0.707031 -0.710937 c 0 -0.390626 0.320312 -0.707032 0.710938 -0.707032 c 0.394531 0 0.710937 0.320313 0.707031 0.710938 c 0 0.394531 -0.316407 0.710937 -0.710938 0.707031 z m 0 0"/>
        <path d="m 99.554688 52.894531 c -0.394532 0 -0.710938 -0.320312 -0.710938 -0.710937 c 0.003906 -0.390625 0.320312 -0.707032 0.714844 -0.707032 c 0.390625 0 0.707031 0.320313 0.707031 0.710938 c 0 0.394531 -0.320313 0.710938 -0.710937 0.707031 z m 0 0"/>
        <path d="m 96.265625 52.453125 c -0.390625 0 -0.707031 -0.320313 -0.707031 -0.710937 c 0 -0.390626 0.320312 -0.707032 0.710937 -0.707032 s 0.710938 0.320313 0.707031 0.710938 c 0 0.390625 -0.320312 0.707031 -0.710937 0.707031 z m 0 0"/>
        <path d="m 92.976562 52.878906 c -0.390624 -0.003906 -0.707031 -0.320312 -0.707031 -0.714844 c 0 -0.390624 0.320313 -0.707031 0.710938 -0.707031 c 0.390625 0.003907 0.707031 0.320313 0.707031 0.710938 c 0 0.394531 -0.320312 0.710937 -0.710938 0.710937 z m 0 0"/>
        <path d="m 92.976562 52.878906 c -0.390624 -0.003906 -0.707031 -0.320312 -0.707031 -0.714844 c 0 -0.390624 0.320313 -0.707031 0.710938 -0.707031 c 0.390625 0.003907 0.707031 0.320313 0.707031 0.710938 c 0 0.394531 -0.320312 0.710937 -0.710938 0.710937 z m 0 0"/>
        <path d="m 89.910156 54.136719 c -0.394531 0 -0.710937 -0.320313 -0.710937 -0.710938 c 0.003906 -0.390625 0.320312 -0.707031 0.714843 -0.707031 c 0.390626 0 0.707032 0.320312 0.707032 0.710938 c -0.003906 0.394531 -0.320313 0.710937 -0.710938 0.707031 z m 0 0"/>
        <path d="m 87.269531 56.148438 c -0.390625 0 -0.707031 -0.316407 -0.707031 -0.710938 c 0.003906 -0.390625 0.320312 -0.707031 0.710938 -0.707031 c 0.394531 0 0.710937 0.320312 0.710937 0.710937 c -0.003906 0.394532 -0.320313 0.710938 -0.714844 0.707032 z m 0 0"/>
        <path d="m 85.246094 58.777344 c -0.394532 -0.003906 -0.710938 -0.320313 -0.710938 -0.714844 c 0.003906 -0.390625 0.320313 -0.707031 0.714844 -0.707031 c 0.390625 0 0.707031 0.320312 0.707031 0.710937 c 0 0.394532 -0.320312 0.710938 -0.710937 0.710938 z m 0 0"/>
        <path d="m 83.964844 61.835938 c -0.390625 0 -0.707032 -0.320313 -0.707032 -0.710938 c 0.003907 -0.390625 0.320313 -0.710938 0.714844 -0.707031 c 0.390625 0 0.707032 0.320312 0.707032 0.710937 c -0.003907 0.390625 -0.320313 0.707032 -0.714844 0.707032 z m 0 0"/>
        <path d="m 83.523438 65.125 c -0.390626 -0.003906 -0.707032 -0.320312 -0.707032 -0.710938 c 0 -0.394531 0.320313 -0.710937 0.710938 -0.710937 c 0.394531 0.003906 0.710937 0.320313 0.707031 0.714844 c 0 0.390625 -0.316406 0.707031 -0.710937 0.707031 z m 0 0"/>
        <path d="m 83.949219 68.414062 c -0.394531 0 -0.710938 -0.320312 -0.707031 -0.710937 c 0 -0.394531 0.316406 -0.710937 0.710937 -0.710937 c 0.390625 0.003906 0.707031 0.320312 0.707031 0.714843 c 0 0.390625 -0.320312 0.707031 -0.710937 0.707031 z m 0 0"/>
        <path d="m 85.207031 71.480469 c -0.390625 0 -0.707031 -0.320313 -0.707031 -0.710938 c 0.003906 -0.390625 0.320312 -0.707031 0.710938 -0.707031 c 0.394531 0 0.710937 0.320312 0.710937 0.710938 c -0.003906 0.390624 -0.320313 0.710937 -0.714844 0.707031 z m 0 0"/>
        <path d="m 87.222656 74.117188 c -0.394531 0 -0.710937 -0.320313 -0.710937 -0.710938 c 0.003906 -0.390625 0.320312 -0.707031 0.714843 -0.707031 c 0.390626 0 0.707032 0.320312 0.707032 0.710937 c -0.003906 0.390625 -0.320313 0.710938 -0.710938 0.707032 z m 0 0"/>
        <path d="m 89.847656 76.144531 c -0.394531 0 -0.710937 -0.320312 -0.707031 -0.710937 c 0 -0.390625 0.316406 -0.710938 0.710937 -0.707032 c 0.390626 0 0.707032 0.320313 0.707032 0.710938 s -0.320313 0.707031 -0.710938 0.707031 z m 0 0"/>
        <path d="m 92.90625 77.421875 c -0.390625 0 -0.707031 -0.320313 -0.707031 -0.710937 c 0 -0.390626 0.320312 -0.707032 0.710937 -0.707032 c 0.394532 0 0.710938 0.320313 0.707032 0.710938 c 0 0.390625 -0.316407 0.710937 -0.710938 0.707031 z m 0 0"/>
        <path d="m 96.195312 77.863281 c -0.394531 0 -0.710937 -0.316406 -0.707031 -0.710937 c 0 -0.390625 0.316407 -0.707032 0.710938 -0.707032 c 0.390625 0 0.707031 0.320313 0.707031 0.710938 c 0 0.394531 -0.320312 0.710938 -0.710938 0.707031 z m 0 0"/>
        <path d="m 99.484375 77.441406 c -0.390625 0 -0.707031 -0.320312 -0.707031 -0.710937 c 0 -0.394531 0.320312 -0.710938 0.710937 -0.707031 c 0.390625 0 0.707031 0.320312 0.707031 0.710937 s -0.320312 0.707031 -0.710937 0.707031 z m 0 0"/>
        <path d="m 102.550781 76.179688 c -0.390625 0 -0.707031 -0.320313 -0.707031 -0.710938 s 0.320312 -0.707031 0.710938 -0.707031 c 0.394531 0 0.710937 0.320312 0.710937 0.710937 c -0.003906 0.390625 -0.320313 0.710938 -0.714844 0.707032 z m 0 0"/>
        <path d="m 105.1875 74.167969 c -0.390625 0 -0.707031 -0.320313 -0.707031 -0.710938 c 0.003906 -0.390625 0.320312 -0.707031 0.710937 -0.707031 c 0.394532 0 0.710938 0.320312 0.710938 0.710938 c -0.003906 0.390624 -0.320313 0.710937 -0.714844 0.707031 z m 0 0"/>
        <path d="m 107.214844 71.542969 c -0.390625 0 -0.707032 -0.320313 -0.707032 -0.710938 s 0.320313 -0.710937 0.710938 -0.707031 c 0.394531 0 0.710938 0.320312 0.707031 0.710938 c 0 0.390624 -0.316406 0.707031 -0.710937 0.707031 z m 0 0"/>
        <path d="m 108.492188 68.480469 c -0.390626 0 -0.707032 -0.316407 -0.707032 -0.710938 c 0.003906 -0.390625 0.320313 -0.707031 0.710938 -0.707031 c 0.394531 0 0.710937 0.320312 0.710937 0.710938 c -0.003906 0.394531 -0.320312 0.710937 -0.714843 0.707031 z m 0 0"/>
        <path d="m 105.757812 65.1875 c -0.390624 -0.003906 -0.707031 -0.320312 -0.707031 -0.710938 c 0.003907 -0.394531 0.320313 -0.710937 0.710938 -0.710937 c 0.394531 0.003906 0.710937 0.320313 0.710937 0.714844 c -0.003906 0.390625 -0.320312 0.707031 -0.714844 0.707031 z m 0 0"/>
        <path d="m 105.757812 65.1875 c -0.390624 -0.003906 -0.707031 -0.320312 -0.707031 -0.710938 c 0.003907 -0.394531 0.320313 -0.710937 0.710938 -0.710937 c 0.394531 0.003906 0.710937 0.320313 0.710937 0.714844 c -0.003906 0.390625 -0.320312 0.707031 -0.714844 0.707031 z m 0 0"/>
        <path d="m 105.300781 62.238281 c -0.390625 0 -0.707031 -0.316406 -0.707031 -0.710937 c 0 -0.390625 0.320312 -0.707032 0.710938 -0.707032 c 0.394531 0 0.710937 0.320313 0.707031 0.710938 c 0 0.394531 -0.320313 0.710938 -0.710938 0.707031 z m 0 0"/>
        <path d="m 103.957031 59.582031 c -0.394531 -0.003906 -0.710937 -0.320312 -0.710937 -0.714843 c 0.003906 -0.390626 0.320312 -0.707032 0.714844 -0.707032 c 0.390624 0 0.707031 0.320313 0.707031 0.710938 c -0.003907 0.394531 -0.320313 0.710937 -0.710938 0.710937 z m 0 0"/>
        <path d="m 101.851562 57.464844 c -0.390624 0 -0.707031 -0.320313 -0.707031 -0.710938 c 0.003907 -0.390625 0.320313 -0.707031 0.710938 -0.707031 c 0.394531 0 0.710937 0.320313 0.710937 0.710937 c -0.003906 0.390626 -0.320312 0.707032 -0.714844 0.707032 z m 0 0"/>
        <path d="m 99.199219 56.105469 c -0.390625 0 -0.707031 -0.320313 -0.707031 -0.710938 c 0 -0.394531 0.320312 -0.710937 0.710937 -0.707031 c 0.394531 0 0.710937 0.316406 0.707031 0.710938 c 0 0.390624 -0.316406 0.707031 -0.710937 0.707031 z m 0 0"/>
        <path d="m 96.257812 55.628906 c -0.394531 0 -0.710937 -0.320312 -0.707031 -0.710937 c 0 -0.390625 0.320313 -0.707031 0.710938 -0.707031 s 0.707031 0.320312 0.707031 0.710937 s -0.320312 0.710937 -0.710938 0.707031 z m 0 0"/>
        <path d="m 93.3125 56.089844 c -0.394531 -0.003906 -0.710938 -0.320313 -0.710938 -0.714844 c 0.003907 -0.390625 0.320313 -0.707031 0.714844 -0.707031 c 0.390625 0.003906 0.707032 0.320312 0.707032 0.710937 c 0 0.394532 -0.320313 0.710938 -0.710938 0.710938 z m 0 0"/>
        <path d="m 90.652344 57.433594 c -0.394532 0 -0.710938 -0.320313 -0.710938 -0.710938 c 0.003906 -0.390625 0.320313 -0.707031 0.714844 -0.707031 c 0.390625 0 0.707031 0.320313 0.707031 0.710937 c -0.003906 0.390626 -0.320312 0.707032 -0.710937 0.707032 z m 0 0"/>
        <path d="m 88.535156 59.535156 c -0.390625 0 -0.707031 -0.316406 -0.707031 -0.710937 c 0.003906 -0.390625 0.320313 -0.707031 0.710937 -0.707031 c 0.394532 0 0.710938 0.320312 0.710938 0.710937 c -0.003906 0.394531 -0.320312 0.710937 -0.714844 0.707031 z m 0 0"/>
        <path d="m 87.175781 62.1875 c -0.390625 0 -0.707031 -0.316406 -0.707031 -0.710938 c 0 -0.390624 0.320312 -0.707031 0.710938 -0.707031 c 0.390624 0 0.707031 0.320313 0.707031 0.710938 c 0 0.394531 -0.320313 0.710937 -0.710938 0.707031 z m 0 0"/>
        <path d="m 86.699219 65.132812 c -0.390625 0 -0.707031 -0.320312 -0.707031 -0.710937 c 0.003906 -0.394531 0.320312 -0.710937 0.710937 -0.707031 c 0.394531 0 0.710937 0.320312 0.710937 0.710937 c -0.003906 0.390625 -0.320312 0.707031 -0.714843 0.707031 z m 0 0"/>
        <path d="m 87.160156 68.078125 c -0.394531 0 -0.710937 -0.320313 -0.707031 -0.710937 c 0 -0.390626 0.316406 -0.707032 0.710937 -0.707032 c 0.390626 0 0.707032 0.320313 0.707032 0.710938 s -0.320313 0.707031 -0.710938 0.707031 z m 0 0"/>
        <path d="m 88.503906 70.738281 c -0.390625 0 -0.707031 -0.320312 -0.707031 -0.710937 s 0.320313 -0.707032 0.710937 -0.707032 c 0.394532 0 0.710938 0.320313 0.710938 0.710938 c -0.003906 0.390625 -0.320312 0.707031 -0.714844 0.707031 z m 0 0"/>
        <path d="m 90.605469 72.851562 c -0.390625 0 -0.707031 -0.316406 -0.707031 -0.710937 c 0.003906 -0.390625 0.320312 -0.707031 0.714843 -0.707031 c 0.390625 0 0.707031 0.320312 0.707031 0.710937 c -0.003906 0.394531 -0.320312 0.710938 -0.714843 0.707031 z m 0 0"/>
        <path d="m 93.261719 74.214844 c -0.394531 0 -0.710938 -0.320313 -0.710938 -0.710938 c 0.003907 -0.394531 0.320313 -0.710937 0.714844 -0.710937 c 0.390625 0.003906 0.707031 0.320312 0.707031 0.714843 c -0.003906 0.390626 -0.320312 0.707032 -0.710937 0.707032 z m 0 0"/>
        <path d="m 96.203125 74.6875 c -0.390625 0 -0.707031 -0.320312 -0.707031 -0.710938 c 0 -0.390624 0.320312 -0.707031 0.710937 -0.707031 s 0.710938 0.320313 0.707031 0.710938 c 0 0.390625 -0.320312 0.710937 -0.710937 0.707031 z m 0 0"/>
        <path d="m 99.148438 74.230469 c -0.390626 0 -0.707032 -0.320313 -0.707032 -0.710938 s 0.320313 -0.710937 0.710938 -0.707031 c 0.394531 0 0.710937 0.320312 0.707031 0.710938 c 0 0.390624 -0.316406 0.707031 -0.710937 0.707031 z m 0 0"/>
        <path d="m 101.808594 72.882812 c -0.390625 0 -0.707032 -0.316406 -0.707032 -0.710937 c 0 -0.390625 0.320313 -0.707031 0.710938 -0.707031 c 0.394531 0 0.710938 0.320312 0.707031 0.710937 c 0 0.394531 -0.316406 0.710938 -0.710937 0.707031 z m 0 0"/>
        <path d="m 103.925781 70.78125 c -0.394531 0 -0.710937 -0.320312 -0.710937 -0.710938 c 0.003906 -0.390624 0.320312 -0.707031 0.714844 -0.707031 c 0.390624 0 0.707031 0.320313 0.707031 0.710938 c -0.003907 0.390625 -0.320313 0.710937 -0.710938 0.707031 z m 0 0"/>
        <path d="m 105.285156 68.128906 c -0.390625 0 -0.710937 -0.320312 -0.707031 -0.710937 c 0 -0.390625 0.320313 -0.707031 0.710937 -0.707031 c 0.390626 0 0.707032 0.320312 0.707032 0.710937 s -0.320313 0.707031 -0.710938 0.707031 z m 0 0"/>
        <path d="m 102.582031 65.175781 c -0.390625 0 -0.707031 -0.316406 -0.707031 -0.710937 c 0 -0.390625 0.320312 -0.707032 0.710938 -0.707032 c 0.394531 0 0.710937 0.320313 0.707031 0.710938 c 0 0.394531 -0.316407 0.710938 -0.710938 0.707031 z m 0 0"/>
        <path d="m 101.742188 62 c -0.394532 -0.003906 -0.710938 -0.320312 -0.707032 -0.714844 c 0 -0.390625 0.316406 -0.707031 0.710938 -0.707031 c 0.390625 0.003906 0.707031 0.320313 0.707031 0.710937 c 0 0.394532 -0.320313 0.710938 -0.710937 0.710938 z m 0 0"/>
        <path d="m 99.421875 59.667969 c -0.390625 -0.003907 -0.707031 -0.320313 -0.707031 -0.714844 c 0 -0.390625 0.320312 -0.707031 0.710937 -0.707031 c 0.390625 0.003906 0.710938 0.320312 0.707031 0.710937 c 0 0.394531 -0.320312 0.710938 -0.710937 0.710938 z m 0 0"/>
        <path d="m 96.25 58.804688 c -0.394531 0 -0.710938 -0.316407 -0.710938 -0.710938 c 0.003907 -0.390625 0.320313 -0.707031 0.714844 -0.707031 c 0.390625 0 0.707032 0.320312 0.707032 0.710937 c -0.003907 0.394532 -0.320313 0.710938 -0.710938 0.707032 z m 0 0"/>
        <path d="m 93.070312 59.648438 c -0.394531 0 -0.710937 -0.320313 -0.707031 -0.710938 c 0 -0.390625 0.316407 -0.710938 0.710938 -0.707031 c 0.390625 0 0.707031 0.320312 0.707031 0.710937 s -0.320312 0.707032 -0.710938 0.707032 z m 0 0"/>
        <path d="m 90.738281 61.96875 c -0.394531 -0.003906 -0.710937 -0.320312 -0.707031 -0.710938 c 0 -0.394531 0.316406 -0.710937 0.710938 -0.710937 c 0.390624 0.003906 0.707031 0.320313 0.707031 0.714844 c 0 0.390625 -0.320313 0.707031 -0.710938 0.707031 z m 0 0"/>
        <path d="m 89.878906 65.140625 c -0.394531 0 -0.710937 -0.320313 -0.710937 -0.710937 c 0.003906 -0.390626 0.320312 -0.707032 0.714843 -0.707032 c 0.390626 0 0.707032 0.320313 0.707032 0.710938 c -0.003906 0.390625 -0.320313 0.710937 -0.710938 0.707031 z m 0 0"/>
        <path d="m 90.71875 68.320312 c -0.390625 0 -0.707031 -0.320312 -0.707031 -0.710937 c 0 -0.394531 0.320312 -0.710937 0.710937 -0.707031 c 0.394532 0 0.710938 0.320312 0.707032 0.710937 c 0 0.390625 -0.316407 0.707031 -0.710938 0.707031 z m 0 0"/>
        <path d="m 93.039062 70.652344 c -0.390624 0 -0.710937 -0.320313 -0.707031 -0.710938 c 0 -0.394531 0.320313 -0.710937 0.710938 -0.707031 c 0.390625 0 0.707031 0.316406 0.707031 0.710937 c 0 0.390626 -0.320312 0.707032 -0.710938 0.707032 z m 0 0"/>
        <path d="m 96.210938 71.511719 c -0.390626 0 -0.707032 -0.320313 -0.707032 -0.710938 c 0.003906 -0.390625 0.320313 -0.707031 0.710938 -0.707031 c 0.394531 0 0.710937 0.320312 0.710937 0.710938 c -0.003906 0.390624 -0.320312 0.707031 -0.714843 0.707031 z m 0 0"/>
        <path d="m 99.390625 70.671875 c -0.390625 -0.003906 -0.707031 -0.320313 -0.707031 -0.714844 c 0 -0.390625 0.320312 -0.707031 0.710937 -0.707031 c 0.394531 0 0.710938 0.320312 0.707031 0.710938 c 0 0.394531 -0.320312 0.710937 -0.710937 0.710937 z m 0 0"/>
        <path d="m 101.722656 68.351562 c -0.390625 0 -0.707031 -0.320312 -0.707031 -0.710937 c 0 -0.394531 0.320313 -0.710937 0.710937 -0.707031 c 0.390626 0 0.710938 0.316406 0.707032 0.710937 c 0 0.390625 -0.320313 0.707031 -0.710938 0.707031 z m 0 0"/>
        <path d="m 99.40625 65.167969 c -0.390625 0 -0.707031 -0.320313 -0.707031 -0.710938 s 0.320312 -0.707031 0.710937 -0.707031 s 0.710938 0.320312 0.707032 0.710938 c 0 0.390624 -0.320313 0.707031 -0.710938 0.707031 z m 0 0"/>
        <path d="m 97.828125 62.414062 c -0.394531 -0.003906 -0.710937 -0.320312 -0.710937 -0.710937 c 0.003906 -0.394531 0.320312 -0.710937 0.714843 -0.710937 c 0.390625 0.003906 0.707031 0.320312 0.707031 0.714843 c -0.003906 0.390625 -0.320312 0.707031 -0.710937 0.707031 z m 0 0"/>
        <path d="m 94.648438 62.402344 c -0.390626 0 -0.707032 -0.316406 -0.707032 -0.710938 c 0 -0.390625 0.320313 -0.707031 0.710938 -0.707031 c 0.394531 0 0.710937 0.320313 0.710937 0.710937 c -0.003906 0.394532 -0.320312 0.710938 -0.714843 0.707032 z m 0 0"/>
        <path d="m 93.054688 65.152344 c -0.394532 -0.003906 -0.710938 -0.320313 -0.707032 -0.714844 c 0 -0.390625 0.316406 -0.707031 0.710938 -0.707031 c 0.390625 0.003906 0.707031 0.320312 0.707031 0.710937 c 0 0.394532 -0.320313 0.710938 -0.710937 0.710938 z m 0 0"/>
        <path d="m 94.632812 67.90625 c -0.390624 0 -0.707031 -0.320312 -0.707031 -0.710938 c 0 -0.394531 0.320313 -0.710937 0.710938 -0.707031 c 0.394531 0 0.710937 0.316407 0.710937 0.710938 c -0.003906 0.390625 -0.320312 0.707031 -0.714844 0.707031 z m 0 0"/>
        <path d="m 97.8125 67.914062 c -0.394531 0 -0.710938 -0.320312 -0.710938 -0.710937 c 0.003907 -0.390625 0.320313 -0.707031 0.714844 -0.707031 c 0.390625 0 0.707032 0.320312 0.707032 0.710937 c -0.003907 0.390625 -0.320313 0.707031 -0.710938 0.707031 z m 0 0"/>
    </g>
    <path d="m 19.273438 48.542969 h 49.335937 c 2.273437 0 4.113281 1.617187 4.113281 3.609375 v 25.289062 c 0 1.996094 -1.839844 3.613282 -4.113281 3.613282 h -49.335937 c -2.273438 0 -4.113282 -1.617188 -4.113282 -3.613282 v -25.289062 c 0 -1.992188 1.839844 -3.609375 4.113282 -3.609375 z m 0 0" fill="#c0bfbc"/>
    <path d="m 20.371094 50.042969 h 47.140625 c 2.171875 0 3.929687 1.464843 3.929687 3.277343 v 22.953126 c 0 1.8125 -1.757812 3.28125 -3.929687 3.28125 h -47.140625 c -2.171875 0 -3.929688 -1.46875 -3.929688 -3.28125 v -22.953126 c 0 -1.8125 1.757813 -3.277343 3.929688 -3.277343 z m 0 0" fill="#77767b"/>
    <path d="m 39.269531 54.476562 l 1.035157 -1.039062 h 7.273437 l 1.035156 1.039062 l -1.035156 1.039063 h -7.273437 z m 0 0" fill-opacity="0.117647" fill-rule="evenodd"/>
    <path d="m 38.75 54.996094 l 1.039062 1.039062 v 7.269532 l -1.039062 1.039062 l -1.039062 -1.039062 v -7.269532 z m 0 0" fill-opacity="0.117647" fill-rule="evenodd"/>
    <path d="m 49.132812 54.996094 l 1.039063 1.039062 v 7.269532 l -1.039063 1.039062 l -1.035156 -1.039062 v -7.269532 z m 0 0" fill-opacity="0.117647" fill-rule="evenodd"/>
    <path d="m 39.269531 64.863281 l 1.035157 -1.039062 h 7.273437 l 1.035156 1.039062 l -1.035156 1.039063 h -7.273437 z m 0 0" fill-opacity="0.117647" fill-rule="evenodd"/>
    <path d="m 38.75 65.382812 l 1.039062 1.035157 v 7.273437 l -1.039062 1.035156 l -1.039062 -1.035156 v -7.273437 z m 0 0" fill-opacity="0.117647" fill-rule="evenodd"/>
    <path d="m 49.132812 65.382812 l 1.039063 1.035157 v 7.273437 l -1.039063 1.035156 l -1.035156 -1.035156 v -7.273437 z m 0 0" fill-opacity="0.117647" fill-rule="evenodd"/>
    <path d="m 39.269531 75.246094 l 1.035157 -1.035156 h 7.273437 l 1.035156 1.035156 l -1.035156 1.039062 h -7.273437 z m 0 0" fill-opacity="0.117647" fill-rule="evenodd"/>
    <path d="m 39.26957952718 54.47656330388 l 1.0351569908 -1.03906303 h 7.2734417293 l 1.0351569908 1.03906303 l -1.0351569908 1.03906303 h -7.2734417293 z m 0 0" fill="#141414" fill-rule="evenodd" stroke="#000000" stroke-linecap="round" stroke-linejoin="round" stroke-width="0.259641"/>
    <path d="m 38.75004801218 54.99609481888 l 1.03906328964 1.03906328964 v 7.26953543045 l -1.03906328964 1.03906328964 l -1.03906303 -1.03906328964 v -7.26953543045 z m 0 0" fill="#141414" fill-rule="evenodd" stroke="#000000" stroke-linecap="round" stroke-linejoin="round" stroke-width="0.259641"/>
    <path d="m 49.13286675307 54.99609481888 l 1.03906303 1.03906328964 v 7.26953543045 l -1.03906303 1.03906328964 l -1.03515673116 -1.03906328964 v -7.26953543045 z m 0 0" fill="#141414" fill-rule="evenodd" stroke="#000000" stroke-linecap="round" stroke-linejoin="round" stroke-width="0.259641"/>
    <path d="m 39.26957952718 64.86328834362 l 1.0351569908 -1.03906328964 h 7.2734417293 l 1.0351569908 1.03906328964 l -1.0351569908 1.03906303 h -7.2734417293 z m 0 0" fill="#141414" fill-rule="evenodd" stroke="#000000" stroke-linecap="round" stroke-linejoin="round" stroke-width="0.259641"/>
    <path d="m 49.13286675307 65.38281985862 l 1.03906303 1.03515673116 v 7.27344198894 l -1.03906303 1.03515673116 l -1.03515673116 -1.03515673116 v -7.27344198894 z m 0 0" fill="#141414" fill-rule="evenodd" stroke="#000000" stroke-linecap="round" stroke-linejoin="round" stroke-width="0.259641"/>
    <path d="m 38.75004801218 65.38281985862 l 1.03906328964 1.03515673116 v 7.27344198894 l -1.03906328964 1.03515673116 l -1.03906303 -1.03515673116 v -7.27344198894 z m 0 0" fill="#141414" fill-rule="evenodd" stroke="#000000" stroke-linecap="round" stroke-linejoin="round" stroke-width="0.259641"/>
    <path d="m 30.25 84.59375 h 2.164062 c 1.195313 0 2.167969 0.96875 2.167969 2.167969 v 2.164062 c 0 1.195313 -0.972656 2.167969 -2.167969 2.167969 h -2.164062 c -1.199219 0 -2.167969 -0.972656 -2.167969 -2.167969 v -2.164062 c 0 -1.199219 0.96875 -2.167969 2.167969 -2.167969 z m 0 0" fill="#b5835a"/>
    <path d="m 30.25 84.59375 h 2.164062 c 1.195313 0 2.167969 0.96875 2.167969 2.167969 c 0 1.195312 -0.972656 2.164062 -2.167969 2.164062 h -2.164062 c -1.199219 0 -2.167969 -0.96875 -2.167969 -2.164062 c 0 -1.199219 0.96875 -2.167969 2.167969 -2.167969 z m 0 0" fill="#cdab8f"/>
    <path d="m 42.859375 84.59375 h 2.164063 c 1.195312 0 2.167968 0.96875 2.167968 2.167969 v 2.164062 c 0 1.195313 -0.972656 2.167969 -2.167968 2.167969 h -2.164063 c -1.195313 0 -2.167969 -0.972656 -2.167969 -2.167969 v -2.164062 c 0 -1.199219 0.972656 -2.167969 2.167969 -2.167969 z m 0 0" fill="#b5835a"/>
    <path d="m 42.859375 84.59375 h 2.164063 c 1.195312 0 2.167968 0.96875 2.167968 2.167969 c 0 1.195312 -0.972656 2.164062 -2.167968 2.164062 h -2.164063 c -1.195313 0 -2.167969 -0.96875 -2.167969 -2.164062 c 0 -1.199219 0.972656 -2.167969 2.167969 -2.167969 z m 0 0" fill="#cdab8f"/>
    <path d="m 55.46875 84.59375 h 2.164062 c 1.199219 0 2.167969 0.96875 2.167969 2.167969 v 2.164062 c 0 1.195313 -0.96875 2.167969 -2.167969 2.167969 h -2.164062 c -1.195312 0 -2.167969 -0.972656 -2.167969 -2.167969 v -2.164062 c 0 -1.199219 0.972657 -2.167969 2.167969 -2.167969 z m 0 0" fill="#ff7800"/>
    <path d="m 55.46875 84.59375 h 2.164062 c 1.199219 0 2.167969 0.96875 2.167969 2.167969 c 0 1.195312 -0.96875 2.164062 -2.167969 2.164062 h -2.164062 c -1.195312 0 -2.167969 -0.96875 -2.167969 -2.164062 c 0 -1.199219 0.972657 -2.167969 2.167969 -2.167969 z m 0 0" fill="#ffbe6f"/>
    <path d="m 42.859375 84.59375 h 2.164063 c 1.195312 0 2.167968 0.96875 2.167968 2.167969 v 2.164062 c 0 1.195313 -0.972656 2.167969 -2.167968 2.167969 h -2.164063 c -1.195313 0 -2.167969 -0.972656 -2.167969 -2.167969 v -2.164062 c 0 -1.199219 0.972656 -2.167969 2.167969 -2.167969 z m 0 0" fill="#ff7800"/>
    <path d="m 42.859375 84.59375 h 2.164063 c 1.195312 0 2.167968 0.96875 2.167968 2.167969 c 0 1.195312 -0.972656 2.164062 -2.167968 2.164062 h -2.164063 c -1.195313 0 -2.167969 -0.96875 -2.167969 -2.164062 c 0 -1.199219 0.972656 -2.167969 2.167969 -2.167969 z m 0 0" fill="#ffbe6f"/>
    <path d="m 30.25 84.59375 h 2.164062 c 1.195313 0 2.167969 0.96875 2.167969 2.167969 v 2.164062 c 0 1.195313 -0.972656 2.167969 -2.167969 2.167969 h -2.164062 c -1.199219 0 -2.167969 -0.972656 -2.167969 -2.167969 v -2.164062 c 0 -1.199219 0.96875 -2.167969 2.167969 -2.167969 z m 0 0" fill="#ff7800"/>
    <path d="m 30.25 84.59375 h 2.164062 c 1.195313 0 2.167969 0.96875 2.167969 2.167969 c 0 1.195312 -0.972656 2.164062 -2.167969 2.164062 h -2.164062 c -1.199219 0 -2.167969 -0.96875 -2.167969 -2.164062 c 0 -1.199219 0.96875 -2.167969 2.167969 -2.167969 z m 0 0" fill="#ffbe6f"/>
    <path d="m 21.1875 44.105469 c -0.574219 0.496093 -1.058594 0.679687 -1.726562 0.679687 c -1.28125 0 -2.320313 -0.894531 -2.320313 -1.972656 c 0 -0.464844 0.222656 -0.957031 0.574219 -1.3125 c 0.429687 -0.417969 1.023437 -0.632812 1.726562 -0.632812 c 0.800782 0 1.355469 0.214843 1.820313 0.726562 h 1.449219 c -0.28125 -0.496094 -0.519532 -0.773438 -1.003907 -1.082031 c -0.628906 -0.429688 -1.449219 -0.675781 -2.300781 -0.675781 c -1.949219 0 -3.5625 1.339843 -3.5625 2.976562 c 0 1.664062 1.632812 3.007812 3.65625 3.007812 c 1.429688 0 2.652344 -0.664062 3.210938 -1.714843 z m 2.371094 1.605469 h 1.300781 v -2.421876 h 2.46875 v 2.421876 h 1.296875 v -5.769532 h -1.296875 v 2.332032 h -2.46875 v -2.332032 h -1.300781 z m 6.390625 0 h 1.296875 v -2.207032 l 1.820312 2.207032 h 1.578125 l -1.875 -2.128907 c 0.539063 -0.105469 0.796875 -0.214843 1.09375 -0.414062 c 0.484375 -0.339844 0.726563 -0.804688 0.726563 -1.375 c 0 -0.585938 -0.261719 -1.078125 -0.742188 -1.417969 c -0.445312 -0.324219 -0.949218 -0.433594 -1.894531 -0.433594 h -2.003906 z m 1.296875 -3.007813 v -1.742187 h 0.578125 c 0.59375 0 0.925781 0.0625 1.132812 0.214843 c 0.222657 0.140625 0.332031 0.371094 0.332031 0.648438 c 0 0.601562 -0.425781 0.878906 -1.410156 0.878906 z m 7.507812 -2.867187 c -2.078125 0 -3.671875 1.308593 -3.671875 2.992187 c 0 1.679687 1.613281 2.992187 3.65625 2.992187 c 2.023438 0 3.582031 -1.3125 3.582031 -2.992187 c 0 -1.652344 -1.597656 -2.992187 -3.566406 -2.992187 z m -0.015625 1.03125 c 1.28125 0 2.28125 0.863281 2.28125 1.976562 c 0 1.109375 -0.984375 1.941406 -2.28125 1.941406 c -1.320312 0 -2.359375 -0.863281 -2.359375 -1.957031 c 0 -1.113281 1.023438 -1.960937 2.359375 -1.960937 z m 4.585938 4.84375 h 1.300781 v -4.320313 l 1.800781 4.320313 h 1.058594 l 1.820313 -4.320313 v 4.320313 h 1.277343 v -5.769532 h -1.761719 l -1.855468 4.367188 l -1.855469 -4.367188 h -1.785156 z m 7.898437 0 h 1.410156 l 0.761719 -1.496094 h 2.488281 l 0.722657 1.496094 h 1.429687 l -2.914062 -5.769532 h -1.019532 z m 2.65625 -2.515626 l 0.742188 -1.742187 l 0.742187 1.742187 z m 5.195313 2.515626 h 1.28125 v -4.75 h 1.300781 v -1.019532 h -3.863281 v 1.019532 h 1.28125 z m 3.222656 0 h 1.296875 v -5.769532 h -1.296875 z m 7.621094 -1.605469 c -0.574219 0.496093 -1.058594 0.679687 -1.726563 0.679687 c -1.277344 0 -2.320312 -0.894531 -2.320312 -1.972656 c 0 -0.464844 0.222656 -0.957031 0.578125 -1.3125 c 0.425781 -0.417969 1.019531 -0.632812 1.726562 -0.632812 c 0.796875 0 1.355469 0.214843 1.816407 0.726562 h 1.449218 c -0.277344 -0.496094 -0.519531 -0.773438 -1.003906 -1.082031 c -0.628906 -0.429688 -1.445312 -0.675781 -2.300781 -0.675781 c -1.949219 0 -3.5625 1.339843 -3.5625 2.976562 c 0 1.664062 1.632812 3.007812 3.65625 3.007812 c 1.429687 0 2.652343 -0.664062 3.210937 -1.714843 z m -54.355469 -4.164063" fill="#c0bfbc"/>
</svg>
